<?xml version="1.0" encoding="UTF-8" standalone="no"?>
<svg
   xmlns:dc="http://purl.org/dc/elements/1.1/"
   xmlns:cc="http://creativecommons.org/ns#"
   xmlns:rdf="http://www.w3.org/1999/02/22-rdf-syntax-ns#"
   xmlns:svg="http://www.w3.org/2000/svg"
   xmlns="http://www.w3.org/2000/svg"
   viewBox="0 0 4096 2304"
   height="2304"
   width="4096"
   id="svg2"
   version="1.1">
  <metadata
     id="metadata8">
    <rdf:RDF>
      <cc:Work
         rdf:about="">
        <dc:format>image/svg+xml</dc:format>
        <dc:type
           rdf:resource="http://purl.org/dc/dcmitype/StillImage" />
        <dc:title></dc:title>
      </cc:Work>
    </rdf:RDF>
  </metadata>
  <defs
     id="defs6" />
  <path
     id="path3754"
     d="m 1454.8351,2152.0133 c -1.1258,-0.688 -236.8981,-0.9358 -728.24997,-0.7653 L -4.1671281e-6,2151.5 -2.083564e-6,2139.25 0,2127 l 717.75,-0.019 c 394.7625,-0.01 1147.3875,-0.012 1672.5,0 645.3265,0.01 954.75,-0.3143 954.75,-1.0005 0,-1.0883 -11.5399,-6.692 -38.0976,-18.4999 -49.698,-22.0962 -94.8719,-38.8961 -146.699,-54.5564 -33.5598,-10.1405 -63.5941,-17.9201 -69.1832,-17.9201 -2.3995,0 -5.0732,-0.6332 -5.9415,-1.4072 -3.2147,-2.8655 -62.7218,-14.6801 -105.5787,-20.9618 -38.638,-5.6633 -73.4507,-9.1587 -117.5,-11.7979 -25.9291,-1.5535 -106.4804,-1.5676 -131.5,-0.023 -33.3405,2.0582 -58.6827,4.3625 -70,6.3648 -11.1648,1.9753 -24.3115,2.9391 -24.9955,1.8324 -0.8776,-1.4201 -0.6562,-14.0841 0.3673,-21.0073 0.6098,-4.125 1.7874,-14.925 2.6167,-24 10.2394,-112.0419 26.0723,-209.0789 50.5201,-309.63 3.2268,-13.2715 5.6177,-25.0832 5.313,-26.2482 -0.3123,-1.1941 0.2085,-3.2819 1.1936,-4.7854 0.9612,-1.4669 4.3993,-12.3802 7.6402,-24.2517 35.376,-129.5819 83.3959,-254.3186 145.5326,-378.0359 10.6216,-21.1481 19.312,-39.2821 19.312,-40.2977 0,-1.0156 1.0344,-2.8376 2.2987,-4.0488 1.2644,-1.2113 8.4084,-13.2273 15.8758,-26.7023 26.5116,-47.8409 58.4999,-100.4265 86.6839,-142.5 8.4739,-12.65 16.2035,-24.84753 17.1769,-27.10563 0.9734,-2.25809 2.4181,-4.3544 3.2105,-4.65845 0.7924,-0.30406 7.4625,-9.03152 14.8226,-19.39437 28.1465,-39.62976 64.5247,-86.86799 96.7765,-125.66736 C 3112.0802,821.97 3118,814.15725 3118,813.31253 c 0,-0.84473 3.9539,-5.42312 8.7865,-10.1742 4.8325,-4.75108 14.7898,-15.38833 22.1272,-23.63833 54.839,-61.65987 117.1963,-123.47597 181.13,-179.55814 C 3353.3243,579.52032 3370.7107,565 3371.8825,565 c 0.5759,0 1.5679,1.0125 2.2045,2.25 0.6366,1.2375 2.1519,3.375 3.3675,4.75 1.7954,2.03092 2.7191,5.78355 4.9232,20 3.4813,22.45494 6.1494,45.2432 7.7091,65.8436 0.9186,12.1327 1.5946,16.48065 2.6236,16.87551 1.7988,0.69028 20.0149,-4.68316 21.3566,-6.29987 2.3245,-2.80078 5.8612,-114.58926 3.8389,-121.33904 -0.8738,-2.91656 -0.8829,-4.70734 -0.036,-7.13615 1.4907,-4.27641 1.4451,-18.73833 -0.077,-24.4297 -0.9261,-3.46241 -0.937,-5.52525 -0.047,-8.85257 2.4391,-9.11941 -1.9217,-119.35872 -7.3047,-184.66178 l -1.525,-18.5 -3.2079,-2.81375 C 3393.6722,290.12938 3319.0474,247 3312.817,247 c -1.3688,0 -4.4751,-1.51265 -6.9029,-3.36145 -2.4278,-1.84879 -11.8391,-6.63469 -20.9141,-10.63532 -139.5651,-61.52596 -295.1405,-79.01042 -445,-50.01168 -69.7157,13.49041 -132.2328,34.89336 -196,67.10128 -73.5468,37.14746 -135.0735,81.82455 -194.0995,140.94381 -24.6293,24.6682 -22.3921,21.01501 -32.8866,53.70083 -17.1538,53.42645 -27.0341,116.42697 -25.6828,163.76253 0.2669,9.35 0.5648,17.675 0.662,18.5 0.097,0.825 -0.2023,3.73406 -0.6655,6.46458 l -0.8422,4.96459 -5.9927,0.2277 c -3.3127,0.12588 -7.3343,-0.36436 -8.9927,-1.0962 -5.6307,-2.48485 -59.0959,-8.15278 -88,-9.32903 -26.217,-1.06689 -99.1975,-0.68309 -116,0.61004 -128.0809,9.85714 -241.7367,40.22473 -352,94.05052 -117.2877,57.25479 -219.5322,136.21447 -304.44,235.1078 -75.4824,87.9155 -131.9541,183.2305 -171.8175,290 -31.5416,84.4806 -49.1589,165.156 -57.4319,263 -1.7811,21.0641 -1.7977,118.9763 -0.024,139 8.8924,100.3682 25.8772,178.2543 57.2586,262.5677 11.7896,31.6755 34.6326,84.1834 38.4818,88.4558 1.5791,1.7527 7.464,15.8037 7.4692,17.8335 0,0.8877 -0.6019,1.1195 -1.7466,0.6704 -0.9625,-0.3777 -4.066,-1.0697 -6.8966,-1.5378 -2.8306,-0.4681 -7.3306,-1.9478 -10,-3.2881 -2.6694,-1.3404 -17.9034,-6.2997 -33.8534,-11.0206 -387.71461,-114.7567 -789.62424,-166.6783 -1197,-154.6371 -45.414757,1.3424 -123.437681,4.9932 -135.75,6.352 L 0,1855.8097 v -12.9049 C 0,1835.8072 0.35128598,1830 0.7806355,1830 c 0.4293495,0 16.5168495,-0.8841 35.7500005,-1.9647 87.640924,-4.924 152.803074,-6.4309 246.469364,-5.6997 85.29974,0.6658 124.11929,1.8824 198.5,6.2206 279.86183,16.323 558.8436,63.697 826.669,140.3768 17.418,4.9868 31.9305,9.067 32.25,9.067 1.3105,0 0.2221,-3.1611 -7.3677,-21.3994 -80.1362,-192.567 -96.5338,-404.9597 -47.0438,-609.3407 42.7424,-176.5149 139.8641,-345.3642 269.1373,-467.90403 38.9595,-36.93019 59.2316,-54.21572 95.8552,-81.73304 59.0814,-44.39114 126.1186,-83.71934 191.447,-112.31467 5.4709,-2.39469 10.7759,-5.24367 11.789,-6.33107 1.013,-1.0874 3.031,-1.97709 4.4843,-1.97709 1.4533,0 10.5483,-3.10762 20.2111,-6.90581 89.6937,-35.25647 183.3581,-56.81721 280.5686,-64.58452 27.2524,-2.17752 75.3338,-3.40518 101.5,-2.59161 13.3213,0.4142 23.6536,0.31864 25.3279,-0.23423 1.896,-0.62606 3.6557,-0.55668 5.3395,0.21048 1.3813,0.62937 11.3587,1.85009 22.172,2.71271 10.8133,0.86263 26.4106,2.35882 34.6606,3.32488 8.25,0.96606 15.519,1.57014 16.1533,1.34239 0.7416,-0.26625 1.3774,-4.94107 1.7808,-13.09419 2.6168,-52.88769 9.663,-99.11945 21.1765,-138.94521 1.3142,-4.54581 2.3894,-9.76286 2.3894,-11.59345 0,-3.774 3.1256,-13.48536 5.8171,-18.07405 0.9896,-1.68706 3.771,-8.454 6.1809,-15.03764 4.1653,-11.379 4.7798,-12.40549 12.4418,-20.78196 4.4331,-4.84644 9.9613,-11.21548 12.2849,-14.15341 2.3235,-2.93794 6.8235,-7.64974 10,-10.47068 3.1764,-2.82094 12.0753,-10.79463 19.7753,-17.71933 57.2077,-51.44752 110.8848,-88.73238 174,-120.86301 92.9989,-47.34376 188.7398,-74.01151 297,-82.72664 20.9311,-1.68499 87.9964,-1.68886 109,-0.006 23.2299,1.86091 54.7972,5.70368 75.4837,9.18881 9.9163,1.67064 19.0779,2.77441 20.3591,2.45284 1.2927,-0.32444 4.9618,0.35239 8.2434,1.52067 3.2526,1.15795 15.5888,4.54061 27.4138,7.51703 40.4229,10.17467 78.7003,22.89141 114.8918,38.17007 9.5655,4.03818 18.4185,7.34214 19.6733,7.34214 1.2548,0 3.5535,1.06251 5.1082,2.36113 1.5547,1.29862 11.8267,6.89761 22.8267,12.44219 11,5.54458 27.875,14.60355 37.5,20.13104 9.625,5.52749 18.1853,10.05351 19.0228,10.05781 1.8528,0.01 11.4215,6.17176 15.2819,9.84158 1.5426,1.46644 8.0325,6.26625 14.4219,10.66625 6.3894,4.4 12.4668,9.15602 13.5053,10.56894 1.3457,1.83078 2.1629,5.48763 2.844,12.72651 0.5257,5.58667 1.4451,11.40564 2.0432,12.93106 0.5981,1.52542 1.2139,10.64849 1.3685,20.27349 0.1545,9.625 0.9923,28.3 1.8617,41.5 2.1909,33.26328 5.9768,132.36306 5.5776,146 -0.15,5.12578 -0.131,15.72119 0.039,21.5 0.1796,6.11895 -2.6836,88.63181 -3.765,108.5 -0.545,10.01298 -0.5116,17.05819 0.089,18.82795 0.6505,1.91593 0.5973,3.62424 -0.1649,5.29705 -0.6188,1.35801 -1.125,3.71192 -1.125,5.23092 0,1.519 -0.5625,3.47986 -1.25,4.35746 -0.6892,0.87981 -12.4654,5.04163 -26.25,9.27701 -13.75,4.22476 -26.2858,8.59193 -27.8574,9.70482 -1.5715,1.1129 -4.7215,2.21389 -7,2.44666 -2.2784,0.23277 -5.0254,0.52107 -6.1043,0.64067 -1.2861,0.14257 -2.0697,-0.47134 -2.2753,-1.78254 -0.1725,-1.1 -0.8106,-3.64623 -1.4181,-5.65829 -0.7379,-2.444 -0.7853,-4.60155 -0.1428,-6.5 1.5503,-4.58101 -0.624,-40.20632 -4.2932,-70.34171 -1.8023,-14.80324 -2.1533,-16.20966 -3.9442,-15.80687 -3.0561,0.6873 -55.1585,47.93787 -88.3502,80.1229 -29.4343,28.54151 -69.933,70.54351 -72.1633,74.84195 -1.0439,2.01189 -5.5502,6.96189 -10.0142,11 -15.7432,14.24157 -64.864,71.30729 -101.1598,117.52187 C 3056.9022,929.71911 3010,994.36293 3010,997.4996 c 0,0.87989 -1.6316,3.265 -3.6258,5.3003 -7.7679,7.9277 -44.6646,65.4286 -74.5625,116.2004 -18.0504,30.6527 -32.8117,57.5782 -32.8117,59.8505 0,1.144 -1.2941,3.5581 -2.8759,5.3647 -5.4852,6.2651 -39.5698,73.9047 -60.7357,120.5278 -25.1231,55.3395 -61.3884,146.2052 -61.3884,153.8136 0,1.7404 -1.1149,4.8072 -2.4776,6.8152 -6.8842,10.1444 -52.7308,160.5978 -51.0259,167.4501 0.3616,1.4535 -0.2013,3.5824 -1.505,5.6919 -5.4727,8.8549 -28.0617,116.0877 -38.8629,184.4862 -9.6463,61.0856 -20.1469,155.4376 -17.5752,157.9209 0.5649,0.5454 4.3746,0.564 9.4466,0.046 76.2489,-7.7861 168.8399,-7.7594 249,0.072 52.9078,5.1688 104.3154,13.323 154.4935,24.5056 10.9964,2.4506 21.4747,4.4557 23.2851,4.4557 1.8105,0 4.2884,0.6455 5.5066,1.4345 1.2181,0.789 7.8398,2.8485 14.7148,4.5767 61.2666,15.4009 130.6379,39.6728 198,69.2771 21.3413,9.379 85.1595,40.9941 86.8413,43.0204 0.8629,1.0398 0.3698,3.9036 -2.0709,12.028 l -3.2034,10.6633 h -188.7692 c -143.1871,0 -189.8476,0.2885 -193.2356,1.1946 -3.4811,0.9311 -4.9734,0.927 -6.7643,-0.018 -1.7851,-0.9424 -42.5802,-1.1185 -182.7979,-0.7892 -99.275,0.2332 -181.9625,0.4224 -183.75,0.4206 -65.7846,-0.067 -470.0071,-0.048 -475.25,0.022 -9.2649,0.1246 -373.8477,0.1568 -387,0.034 -46.5785,-0.4343 -317.4133,-0.01 -320.5,0.5031 -2.2319,0.3704 -4.7359,0.2141 -5.6649,-0.3536 z M 2983,421.48724 c -16.9415,-4.60493 -32.2624,-17.1042 -39.8625,-32.52109 -9.3998,-19.06772 -9.403,-37.79074 -0.01,-56.96615 3.2443,-6.62302 5.843,-10.15621 11.768,-16.00023 12.6797,-12.50631 26.2271,-18.14045 43.6042,-18.13423 18.198,0.007 31.9832,5.6182 44.5945,18.15345 19.6245,19.50637 24.2747,47.62538 11.9864,72.48101 -7.0521,14.26454 -20.5027,26.27482 -35.3054,31.5249 -8.24,2.92251 -28.4474,3.72604 -36.7755,1.46234 z m 31.2526,-25.74284 c 30.4222,-13.94109 30.8707,-55.88802 0.7503,-70.16259 C 3009.1584,322.812 3007.5382,322.5 2999,322.5 c -8.6046,0 -10.1338,0.30025 -16.2248,3.18565 -32.0572,15.18612 -28.562,60.80185 5.5108,71.92191 6.7353,2.19814 19.029,1.31605 25.9666,-1.86316 z"
     style="fill:#000000" />
</svg>
